<svg id="Capa_1" data-name="Capa 1" xmlns="http://www.w3.org/2000/svg" viewBox="0 0 21.37 21.37"><defs><style>.cls-1{fill:#1d71b8;}.cls-2{fill:#fff;}</style></defs><title>assets</title><circle class="cls-1" cx="10.68" cy="10.68" r="10.68"/><path class="cls-2" d="M16.52,15.13,15,11.9a5.55,5.55,0,0,1-3.62,2.33l1.26,2.7a.43.43,0,0,0,.79,0l.64-1.77.13-.06,1.77.64A.43.43,0,0,0,16.52,15.13Z"/><path class="cls-2" d="M10.44,4.08a4.7,4.7,0,1,0,4.7,4.7A4.7,4.7,0,0,0,10.44,4.08Zm2.28,4.35-.83.81.2,1.15a.43.43,0,0,1-.62.45l-1-.54-1,.54a.43.43,0,0,1-.62-.45L9,9.24l-.83-.81a.43.43,0,0,1,.24-.73l1.15-.17.51-1a.43.43,0,0,1,.77,0l.51,1,1.15.17A.43.43,0,0,1,12.72,8.43Z"/><path class="cls-2" d="M5.86,11.9l-1.5,3.22a.43.43,0,0,0,.53.58l1.77-.64.13.06.64,1.77a.43.43,0,0,0,.79,0l1.26-2.7A5.55,5.55,0,0,1,5.86,11.9Z"/></svg>