<svg id="Capa_1" data-name="Capa 1" xmlns="http://www.w3.org/2000/svg" viewBox="0 0 21.37 21.37"><defs><style>.cls-1{fill:#1d71b8;}.cls-2{fill:#fff;}</style></defs><title>assets</title><circle class="cls-1" cx="10.68" cy="10.68" r="10.68"/><path class="cls-2" d="M16.87,6.95A3.16,3.16,0,0,0,16,5.62a3.16,3.16,0,0,0-1.33-.82A1.26,1.26,0,0,0,13.43,5L5,13.43a1.26,1.26,0,0,0-.23,1.28A3.16,3.16,0,0,0,5.62,16a3.17,3.17,0,0,0,1.33.82,1.82,1.82,0,0,0,.49.07,1.09,1.09,0,0,0,.79-.3l3.11-3.11,2,2,.44-1.76,1.76-.44-2-2,3.11-3.11A1.26,1.26,0,0,0,16.87,6.95Zm-5.76,5.8L8.47,15.39v0A3.16,3.16,0,0,0,7.64,14a3.17,3.17,0,0,0-1.33-.82h0l2.64-2.64a.61.61,0,0,1,.58,0,2.7,2.7,0,0,1,1.66,1.66A.61.61,0,0,1,11.11,12.75Zm5-5-2.57,2.57v0A3.41,3.41,0,0,0,11.4,8.1h0l2.57-2.57a.61.61,0,0,1,.58,0,2.7,2.7,0,0,1,1.66,1.66A.61.61,0,0,1,16.13,7.73Z"/></svg>