<svg id="Capa_1" data-name="Capa 1" xmlns="http://www.w3.org/2000/svg" viewBox="0 0 21.37 21.37"><defs><style>.cls-1{fill:#1d71b8;}.cls-2{fill:#fff;}</style></defs><title>assets</title><circle class="cls-1" cx="10.68" cy="10.68" r="10.68"/><path class="cls-2" d="M16.61,6.9h-2.7V6.36a1.08,1.08,0,0,0-1.08-1.08H9.6A1.08,1.08,0,0,0,8.52,6.36V6.9H5.82A1.08,1.08,0,0,0,4.74,8V9.6a1.08,1.08,0,0,0,1.08,1.08h4.32V10.4a.27.27,0,0,1,.27-.27H12a.27.27,0,0,1,.27.27v.27h4.32A1.08,1.08,0,0,0,17.69,9.6V8A1.08,1.08,0,0,0,16.61,6.9Zm-3.78,0H9.6V6.36h3.24Z"/><path class="cls-2" d="M17.54,11a.27.27,0,0,0-.28,0,1.07,1.07,0,0,1-.65.22H12.3V12a.27.27,0,0,1-.27.27H10.41a.27.27,0,0,1-.27-.27v-.81H5.82A1.07,1.07,0,0,1,5.18,11a.27.27,0,0,0-.43.21V15a1.08,1.08,0,0,0,1.08,1.08H16.61A1.08,1.08,0,0,0,17.69,15V11.21A.27.27,0,0,0,17.54,11Z"/></svg>