<svg id="Capa_1" data-name="Capa 1" xmlns="http://www.w3.org/2000/svg" viewBox="0 0 21.37 21.37"><defs><style>.cls-1{fill:#1d71b8;}.cls-2{fill:#fff;}</style></defs><title>assets</title><circle class="cls-1" cx="10.68" cy="10.68" r="10.68"/><path class="cls-2" d="M6.36,10.61v2.51a14,14,0,0,1,4.54-1,14,14,0,0,1,4.54,1V10.57a11.37,11.37,0,0,0-4.58-1.22A10.61,10.61,0,0,0,6.36,10.61Z"/><path class="cls-2" d="M18,10l.9-.49L18,9V8.79s.25-1.29-1.19-.62a.27.27,0,0,0-.13.12L10.71,5,2.88,9.47l3,1.34v-.44a11.85,11.85,0,0,1,5-1.39A12.67,12.67,0,0,1,16,10.34v.76l1.63-.88v3.55h-.54V15l.72-.5.8.5V13.78H18V10ZM17.6,8.57v.24l-.48-.26C17.3,8.43,17.6,8.27,17.6,8.57ZM17.44,10a.38.38,0,1,1,.38-.38A.38.38,0,0,1,17.44,10Z"/></svg>