<svg id="Capa_1" data-name="Capa 1" xmlns="http://www.w3.org/2000/svg" viewBox="0 0 21.37 21.37"><defs><style>.cls-1{fill:#1d71b8;}.cls-2{fill:#fff;}</style></defs><title>assets</title><circle class="cls-1" cx="10.68" cy="10.68" r="10.68"/><path class="cls-2" d="M15,5.9h-.61V5.18a.61.61,0,0,0-.59-.64H8a.64.64,0,0,0-.63.64V5.9H6.71a.74.74,0,0,0-.79.77v1A2.42,2.42,0,0,0,7.74,10,3.58,3.58,0,0,0,9.9,11.88a.44.44,0,0,0-.26.4.39.39,0,0,0,.08.25h0a.46.46,0,0,0-.44.42H8.69a.57.57,0,0,0-.57.57v1.88H7.87a.63.63,0,0,0-.63.61v0a.63.63,0,0,0,.63.61H13.8a.6.6,0,0,0,.6-.61v0a.6.6,0,0,0-.6-.61h-.21V13.53A.57.57,0,0,0,13,13h-.57a.46.46,0,0,0-.44-.42h0a.39.39,0,0,0,.08-.25.44.44,0,0,0-.26-.4A3.55,3.55,0,0,0,14,10,2.41,2.41,0,0,0,15.75,7.7v-1A.76.76,0,0,0,15,5.9Zm-8.09,2V6.84h.47V8.32a3.88,3.88,0,0,0,.12,1A1.86,1.86,0,0,1,6.87,7.93Zm5.07,1.32-1.08-.78-1.08.78L10.19,8,9.12,7.21h1.33l.41-1.26.41,1.26H12.6L11.52,8Zm2.88-1.32a1.86,1.86,0,0,1-.59,1.35,3.88,3.88,0,0,0,.12-1V6.84h.47Z"/></svg>