<svg id="Capa_1" data-name="Capa 1" xmlns="http://www.w3.org/2000/svg" viewBox="0 0 21.37 21.37"><defs><style>.cls-1{fill:#1d71b8;}.cls-2{fill:#fff;}</style></defs><title>assets</title><circle class="cls-1" cx="10.68" cy="10.68" r="10.68"/><path class="cls-2" d="M13.35,11.22a.27.27,0,0,0-.22-.18l-1.37-.2-.61-1.24a.27.27,0,0,0-.49,0l-.61,1.24L8.68,11a.27.27,0,0,0-.15.46l1,1-.23,1.36a.27.27,0,0,0,.39.29l1.22-.64,1.22.64a.27.27,0,0,0,.39-.29l-.23-1.36,1-1A.27.27,0,0,0,13.35,11.22Zm-1.54,1a.27.27,0,0,0-.08.24l.16,1L11,12.92a.27.27,0,0,0-.25,0l-.86.45.16-1a.27.27,0,0,0-.08-.24l-.7-.68,1-.14a.27.27,0,0,0,.2-.15l.43-.87.43.87a.27.27,0,0,0,.2.15l1,.14Z"/><path class="cls-2" d="M6.35,9.64A2.69,2.69,0,0,0,8.88,7.85a.27.27,0,0,0-.17-.35,2.67,2.67,0,0,0-2,.1A6.12,6.12,0,0,1,7.21,7a.27.27,0,1,0-.38-.38q-.21.21-.4.43A2.68,2.68,0,0,0,5.31,4.95.27.27,0,0,0,4.93,5a2.69,2.69,0,0,0,.5,3.65,6.6,6.6,0,0,0-.23.63A2.73,2.73,0,0,0,5,8.95,2.67,2.67,0,0,0,3.33,7.76.27.27,0,0,0,3,8a2.69,2.69,0,0,0,1.89,3.17,6.69,6.69,0,0,0,0,.86l-.2-.16a2.67,2.67,0,0,0-2-.49.27.27,0,0,0-.23.31,2.69,2.69,0,0,0,2.65,2.28h.27a6.58,6.58,0,0,0,.38.76,2.69,2.69,0,0,0-2.53.48.27.27,0,0,0,0,.38,2.67,2.67,0,0,0,1.81,1h.27A2.66,2.66,0,0,0,6.88,16a6.68,6.68,0,0,0,1,.8.27.27,0,0,0,.3-.45,6.14,6.14,0,0,1-1-.78,6.05,6.05,0,0,1-1.42-2.24A2.69,2.69,0,0,0,7.4,10.11a.27.27,0,0,0-.34-.18,2.67,2.67,0,0,0-1.6,1.29l0,.06a6.12,6.12,0,0,1,.25-1.71A2.67,2.67,0,0,0,6.35,9.64Zm-1.47.92A2.15,2.15,0,0,1,3.49,8.38a2.15,2.15,0,0,1,1.39,2.19ZM3.89,13a2.13,2.13,0,0,1-.79-1.12h0A2.15,2.15,0,0,1,5.19,13.4,2.13,2.13,0,0,1,3.89,13Zm1.22,3a2.13,2.13,0,0,1-1.25-.56,2.15,2.15,0,0,1,2.58.26A2.13,2.13,0,0,1,5.11,16Zm.82-4.5a2.13,2.13,0,0,1,1-.93A2.15,2.15,0,0,1,5.7,12.82,2.13,2.13,0,0,1,5.94,11.47Zm1-3.37a2.13,2.13,0,0,1,1.36-.16A2.15,2.15,0,0,1,5.91,9.06,2.13,2.13,0,0,1,6.9,8.1ZM5,6.93a2.13,2.13,0,0,1,.21-1.35,2.15,2.15,0,0,1,.43,2.56A2.13,2.13,0,0,1,5,6.93Z"/><path class="cls-2" d="M16.66,13.94a2.69,2.69,0,0,0,2.65-2.28.27.27,0,0,0-.23-.31,2.68,2.68,0,0,0-2.19.65,6.69,6.69,0,0,0,0-.86A2.69,2.69,0,0,0,18.81,8a.27.27,0,0,0-.32-.21A2.67,2.67,0,0,0,16.8,8.95a2.73,2.73,0,0,0-.19.35,6.6,6.6,0,0,0-.23-.63A2.69,2.69,0,0,0,16.88,5a.27.27,0,0,0-.38-.06,2.67,2.67,0,0,0-1.09,1.74,2.73,2.73,0,0,0,0,.35q-.19-.22-.4-.43A.27.27,0,1,0,14.6,7a6.12,6.12,0,0,1,.54.62,2.67,2.67,0,0,0-2-.1.27.27,0,0,0-.17.35,2.69,2.69,0,0,0,3.2,1.71,6.13,6.13,0,0,1,.25,1.72,2.68,2.68,0,0,0-1.63-1.35.27.27,0,0,0-.34.18A2.69,2.69,0,0,0,16,13.37a6.05,6.05,0,0,1-1.42,2.24,6.14,6.14,0,0,1-1,.78.27.27,0,1,0,.3.45,6.68,6.68,0,0,0,1-.8,2.69,2.69,0,0,0,3.63-.49.27.27,0,0,0,0-.38,2.67,2.67,0,0,0-2-.59,2.71,2.71,0,0,0-.56.12,6.58,6.58,0,0,0,.38-.75Zm1.67-5.57a2.15,2.15,0,0,1-1.39,2.19A2.15,2.15,0,0,1,18.32,8.38Zm.39,3.49a2.15,2.15,0,0,1-2.09,1.54A2.15,2.15,0,0,1,18.71,11.86ZM13.56,7.94A2.15,2.15,0,0,1,15.9,9.06,2.15,2.15,0,0,1,13.56,7.94Zm2.61.19a2.15,2.15,0,0,1,.43-2.56A2.15,2.15,0,0,1,16.16,8.13Zm.45,7a2.13,2.13,0,0,1,1.33.31,2.15,2.15,0,0,1-2.58.26A2.13,2.13,0,0,1,16.61,15.11Zm-.5-2.29a2.15,2.15,0,0,1-1.25-2.27A2.15,2.15,0,0,1,16.11,12.82Z"/></svg>