<svg id="Capa_1" data-name="Capa 1" xmlns="http://www.w3.org/2000/svg" viewBox="0 0 21.37 21.37"><defs><style>.cls-1{fill:#1d71b8;}.cls-2{fill:#fff;}</style></defs><title>assets</title><circle class="cls-1" cx="10.68" cy="10.68" r="10.68"/><path class="cls-2" d="M5.06,13.64V17H8.41l6.69-6.69L11.75,7ZM8,16H7.12v-1h-1v-.86l.73-.73,1.89,1.89Zm4-7.63a.16.16,0,0,1,.18.18.19.19,0,0,1-.06.14L7.77,13a.19.19,0,0,1-.14.06.16.16,0,0,1-.18-.18.19.19,0,0,1,.06-.14l4.36-4.36A.19.19,0,0,1,12,8.32Z"/><path class="cls-2" d="M16.94,7,15.05,5.12a1,1,0,0,0-.73-.31,1,1,0,0,0-.72.31L12.26,6.44l3.34,3.34,1.33-1.33a1,1,0,0,0,.3-.72A1,1,0,0,0,16.94,7Z"/></svg>