<svg id="Capa_1" data-name="Capa 1" xmlns="http://www.w3.org/2000/svg" viewBox="0 0 7.75 7.74"><defs><style>.cls-1{fill:#fff;}</style></defs><title>assets</title><path class="cls-1" d="M7.74,6.11a.37.37,0,0,1-.11.33L6.54,7.52a.61.61,0,0,1-.19.14.8.8,0,0,1-.23.07H6a3.78,3.78,0,0,1-.5-.05,3.83,3.83,0,0,1-.85-.26A7.16,7.16,0,0,1,3.45,6.8,8.53,8.53,0,0,1,2.09,5.65a9,9,0,0,1-1-1.08,7.71,7.71,0,0,1-.61-1,5.15,5.15,0,0,1-.34-.8A4.22,4.22,0,0,1,0,2.2,2,2,0,0,1,0,1.8q0-.15,0-.16A.8.8,0,0,1,.08,1.4a.61.61,0,0,1,.14-.19L1.31.11A.36.36,0,0,1,1.58,0a.31.31,0,0,1,.19.06A.57.57,0,0,1,1.9.21l.88,1.67a.4.4,0,0,1,0,.29.51.51,0,0,1-.14.26l-.4.4,0,.05a.2.2,0,0,0,0,.06,1.48,1.48,0,0,0,.15.39,3.61,3.61,0,0,0,.3.48,5.33,5.33,0,0,0,.58.65,5.43,5.43,0,0,0,.66.59,3.79,3.79,0,0,0,.48.31,1.28,1.28,0,0,0,.3.12l.1,0h.05l.05,0L5.38,5a.5.5,0,0,1,.34-.13.43.43,0,0,1,.22,0H6l1.58.94A.41.41,0,0,1,7.74,6.11Z"/></svg>